# This file uses centimeters as units for non-parametric coordinates.

g default
v -1.262985 12.303746 -3.887068
v -2.402340 12.303746 -3.306537
v -3.306537 12.303746 -2.402340
v -3.887068 12.303746 -1.262985
v -4.087105 12.303746 0.000000
v -3.887068 12.303746 1.262985
v -3.306538 12.303746 2.402340
v -2.402340 12.303746 3.306538
v -1.262985 12.303746 3.887069
v -1.262985 2.303745 -3.887068
v -2.402340 2.303745 -3.306537
v -3.306537 2.303745 -2.402340
v -3.887068 2.303745 -1.262985
v -4.087105 2.303745 -0.000000
v -3.887068 2.303745 1.262985
v -3.306538 2.303745 2.402340
v -2.402340 2.303745 3.306538
v -1.262985 2.303745 3.887069
vt 0.885574 0.821672
vt 0.142211 0.468575
vt 0.179301 0.468575
vt 0.885575 0.468580
vt 0.856141 0.468579
vt 0.819051 0.468579
vt 0.777937 0.468578
vt 0.736823 0.468578
vt 0.699734 0.468577
vt 0.670300 0.468577
vt 0.633210 0.468577
vt 0.179300 0.821668
vt 0.142211 0.821668
vt 0.856140 0.821672
vt 0.819050 0.821671
vt 0.777936 0.821671
vt 0.736823 0.821670
vt 0.699733 0.821670
vt 0.670299 0.821669
vt 0.633210 0.821669
vn -0.587785 0.000000 -0.809017
vn -0.453991 0.000000 -0.891007
vn -0.453991 0.000000 -0.891007
vn -0.587785 0.000000 -0.809017
vn -0.809017 0.000000 -0.587785
vn -0.809017 0.000000 -0.587785
vn -0.951057 0.000000 -0.309017
vn -0.951057 0.000000 -0.309017
vn -1.000000 0.000000 0.000000
vn -1.000000 0.000000 0.000000
vn -0.951057 0.000000 0.309017
vn -0.951057 0.000000 0.309017
vn -0.809017 0.000000 0.587785
vn -0.809017 0.000000 0.587785
vn -0.587785 0.000000 0.809017
vn -0.587785 0.000000 0.809017
vn -0.453991 0.000000 0.891006
vn -0.453991 0.000000 0.891006
g pPipe1
f 2/19/1 1/20/2 10/11/3 11/10/4
f 3/18/5 2/19/1 11/10/4 12/9/6
f 4/17/7 3/18/5 12/9/6 13/8/8
f 5/16/9 4/17/7 13/8/8 14/7/10
f 6/15/11 5/16/9 14/7/10 15/6/12
f 7/14/13 6/15/11 15/6/12 16/5/14
f 8/1/15 7/14/13 16/5/14 17/4/16
f 9/12/17 8/13/15 17/2/16 18/3/18
