# This file uses centimeters as units for non-parametric coordinates.

g default
v 4.087104 12.303747 0.000000
v 3.887068 12.303747 -1.262985
v 3.306537 12.303747 -2.402340
v 2.402340 12.303747 -3.306537
v 1.262985 12.303747 -3.887068
v -0.000000 12.303747 -4.087105
v -1.262985 12.303747 -3.887068
v -2.402340 12.303747 -3.306537
v -3.306538 12.303747 -2.402340
v -3.887069 12.303747 -1.262985
v -4.087105 12.303747 0.000000
v -3.887069 12.303747 1.262985
v -3.306538 12.303747 2.402340
v -2.402341 12.303747 3.306538
v -1.262985 12.303747 3.887069
v 0.000000 12.303747 4.087106
v 1.262985 12.303747 3.887070
v 2.402341 12.303747 3.306539
v 3.306539 12.303747 2.402341
v 3.887070 12.303747 1.262986
v 4.087104 2.303745 -0.000000
v 3.887068 2.303745 -1.262985
v 3.306537 2.303745 -2.402340
v 2.402340 2.303745 -3.306537
v 1.262985 2.303745 -3.887068
v -0.000000 2.303745 -4.087105
v -1.262985 2.303745 -3.887068
v -2.402340 2.303745 -3.306537
v -3.306538 2.303745 -2.402340
v -3.887069 2.303745 -1.262985
v -4.087105 2.303745 -0.000000
v -3.887069 2.303745 1.262985
v -3.306538 2.303745 2.402340
v -2.402341 2.303745 3.306538
v -1.262985 2.303745 3.887069
v 0.000000 2.303745 4.087106
v 1.262985 2.303745 3.887070
v 2.402341 2.303745 3.306539
v 3.306539 2.303745 2.402341
v 3.887070 2.303745 1.262986
v 4.087104 0.002908 -0.000000
v 3.887068 0.002908 -1.262985
v 3.887070 0.002908 1.262986
v 3.306539 0.002908 2.402341
v 2.402341 0.002908 3.306539
v 1.262985 0.002908 3.887070
v -0.000000 0.002908 4.087106
v -1.262985 0.002908 3.887069
v -2.402341 0.002908 3.306538
v -3.306538 0.002908 2.402340
v -3.887069 0.002908 1.262985
v -4.087105 0.002908 -0.000000
v -3.887069 0.002908 -1.262985
v -3.306538 0.002908 -2.402340
v -2.402340 0.002908 -3.306537
v -1.262985 0.002908 -3.887068
v -0.000000 0.002908 -4.087105
v 1.262985 0.002908 -3.887068
v 2.402340 0.002908 -3.306537
v 3.306537 0.002908 -2.402340
v 3.887068 14.765415 -1.262985
v 3.306537 14.765415 -2.402340
v 2.402340 14.765415 -3.306536
v 1.262985 14.765415 -3.887067
v -0.000000 14.765415 -4.087105
v -1.262985 14.765415 -3.887067
v -2.402340 14.765415 -3.306537
v -3.306538 14.765415 -2.402340
v -3.887069 14.765415 -1.262985
v -4.087105 14.765415 0.000000
v -3.887069 14.765415 1.262985
v -3.306538 14.765415 2.402341
v -2.402341 14.765415 3.306539
v -1.262985 14.765415 3.887070
v 0.000000 14.765415 4.087107
v 1.262985 14.765415 3.887071
v 2.402341 14.765415 3.306540
v 3.306539 14.765415 2.402342
v 3.887070 14.765415 1.262986
v 4.087104 14.765415 0.000000
vt 0.448720 0.871701
vt 0.407747 0.871701
vt 0.448720 0.956213
vt 0.407747 0.956213
vt 0.366774 0.871701
vt 0.485682 0.871701
vt 0.485682 0.956213
vt 0.366774 0.956213
vt 0.329813 0.871701
vt 0.515016 0.871700
vt 0.515014 0.956214
vt 0.329812 0.956213
vt 0.300478 0.871700
vt 0.300480 0.956213
vt 0.737181 0.871761
vt 0.700219 0.871751
vt 0.737178 0.956274
vt 0.700216 0.956264
vt 0.670886 0.871742
vt 0.778154 0.871772
vt 0.778150 0.956285
vt 0.670883 0.956256
vt 0.819127 0.871784
vt 0.819123 0.956297
vt 0.856089 0.871794
vt 0.856085 0.956307
vt 0.885418 0.956315
vt 0.209397 0.100409
vt 0.227934 0.064029
vt 0.256805 0.035158
vt 0.293184 0.016622
vt 0.333511 0.010235
vt 0.373838 0.016622
vt 0.410217 0.035158
vt 0.439088 0.064029
vt 0.457624 0.100409
vt 0.464012 0.140735
vt 0.457624 0.181062
vt 0.439088 0.217442
vt 0.410217 0.246313
vt 0.373838 0.264849
vt 0.333511 0.271236
vt 0.293184 0.264849
vt 0.256805 0.246313
vt 0.227934 0.217442
vt 0.209397 0.181062
vt 0.203010 0.140735
vt 0.551979 0.871710
vt 0.551976 0.956224
vt 0.592952 0.871721
vt 0.592948 0.956235
vt 0.633924 0.871732
vt 0.633921 0.956245
vt 0.181570 0.871732
vt 0.144608 0.871742
vt 0.181573 0.956245
vt 0.144611 0.956255
vt 0.222543 0.871722
vt 0.222546 0.956235
vt 0.263515 0.871710
vt 0.263519 0.956223
vt 0.885422 0.871802
vt 0.446330 0.960705
vt 0.405472 0.960705
vt 0.405472 0.877075
vt 0.446330 0.877075
vt 0.364614 0.960705
vt 0.364614 0.877075
vt 0.483188 0.960705
vt 0.483188 0.877075
vt 0.327755 0.960705
vt 0.327755 0.877075
vt 0.512439 0.960705
vt 0.512439 0.877075
vt 0.298504 0.960705
vt 0.298504 0.877075
vt 0.852557 0.960709
vt 0.815698 0.960709
vt 0.815698 0.877079
vt 0.852557 0.877079
vt 0.774840 0.960709
vt 0.774840 0.877078
vt 0.881808 0.960710
vt 0.881808 0.877079
vt 0.733982 0.960708
vt 0.733982 0.877078
vt 0.697124 0.960708
vt 0.697124 0.877078
vt 0.667873 0.960708
vt 0.667873 0.877077
vt 0.853174 0.185181
vt 0.834774 0.221294
vt 0.806115 0.249953
vt 0.770002 0.268353
vt 0.729972 0.274693
vt 0.689941 0.268353
vt 0.653828 0.249953
vt 0.625169 0.221294
vt 0.606769 0.185181
vt 0.600429 0.145151
vt 0.606769 0.105120
vt 0.625169 0.069007
vt 0.653828 0.040348
vt 0.689941 0.021948
vt 0.729972 0.015608
vt 0.770002 0.021948
vt 0.806115 0.040348
vt 0.834774 0.069007
vt 0.853174 0.105120
vt 0.859514 0.145151
vt 0.261645 0.960704
vt 0.261645 0.877074
vt 0.220787 0.960703
vt 0.220787 0.877073
vt 0.179929 0.960702
vt 0.179929 0.877072
vt 0.143070 0.960701
vt 0.143071 0.877071
vt 0.631014 0.960707
vt 0.631014 0.877077
vt 0.590156 0.960706
vt 0.590156 0.877076
vt 0.549298 0.960706
vt 0.549298 0.877075
vt 0.459831 0.096438
vt 0.466307 0.137327
vt 0.459831 0.178216
vt 0.441036 0.215102
vt 0.411763 0.244376
vt 0.374877 0.263170
vt 0.333988 0.269646
vt 0.293099 0.263170
vt 0.256213 0.244375
vt 0.226939 0.215102
vt 0.208145 0.178216
vt 0.201669 0.137327
vt 0.208145 0.096438
vt 0.226939 0.059552
vt 0.256213 0.030279
vt 0.293099 0.011485
vt 0.333988 0.005008
vt 0.374877 0.011485
vt 0.411763 0.030279
vt 0.441036 0.059552
vn 0.951057 0.000000 -0.309017
vn 0.951057 0.000000 -0.309017
vn 1.000000 0.000000 -0.000001
vn 1.000000 0.000000 -0.000001
vn 0.951057 0.000000 0.309016
vn 0.951057 0.000000 0.309016
vn 0.809017 0.000000 0.587785
vn 0.809017 0.000000 0.587785
vn 0.587785 0.000000 0.809017
vn 0.587785 0.000000 0.809017
vn 0.309017 0.000000 0.951057
vn 0.309017 0.000000 0.951057
vn -0.000000 0.000000 1.000000
vn -0.000000 0.000000 1.000000
vn -0.309017 0.000000 0.951057
vn -0.309017 0.000000 0.951057
vn -0.587785 0.000000 0.809017
vn -0.587785 0.000000 0.809017
vn -0.809017 0.000000 0.587785
vn -0.809017 0.000000 0.587785
vn -0.951057 0.000000 0.309017
vn -0.951057 0.000000 0.309017
vn -1.000000 0.000000 0.000000
vn -1.000000 0.000000 -0.000000
vn -0.951057 0.000000 -0.309017
vn -0.951057 0.000000 -0.309017
vn -0.809017 0.000000 -0.587785
vn -0.809017 0.000000 -0.587785
vn -0.587785 0.000000 -0.809017
vn -0.587785 0.000000 -0.809017
vn -0.309017 0.000000 -0.951056
vn -0.309017 0.000000 -0.951056
vn 0.000000 0.000000 -1.000000
vn 0.000000 0.000000 -1.000000
vn 0.309017 0.000000 -0.951056
vn 0.309017 0.000000 -0.951056
vn 0.587785 0.000000 -0.809017
vn 0.587785 0.000000 -0.809017
vn 0.809017 0.000000 -0.587785
vn 0.809017 0.000000 -0.587785
vn 0.000000 1.000000 0.000001
vn 0.000000 1.000000 -0.000001
vn 0.000000 1.000000 -0.000000
vn 0.000000 1.000000 0.000001
vn 0.000000 1.000000 0.000000
vn 0.000000 1.000000 0.000000
vn 0.000000 1.000000 -0.000000
vn 0.000000 1.000000 -0.000000
vn 0.000000 1.000000 -0.000001
vn 0.000000 1.000000 0.000000
vn 0.000000 1.000000 0.000000
vn 0.000000 1.000000 -0.000000
vn 0.000000 1.000000 0.000001
vn 0.000000 1.000000 0.000000
vn 0.000000 1.000000 -0.000001
vn 0.000000 1.000000 0.000000
vn 0.000000 1.000000 0.000000
vn 0.000000 1.000000 0.000000
vn 0.000000 1.000000 0.000000
vn 0.000000 1.000000 0.000002
vn 0.951057 0.000000 -0.309017
vn 0.951057 0.000000 -0.309017
vn 0.809017 0.000000 -0.587785
vn 0.809017 0.000000 -0.587785
vn 0.587785 0.000000 -0.809017
vn 0.587785 0.000000 -0.809017
vn 0.309017 0.000000 -0.951056
vn 0.309017 0.000000 -0.951056
vn 0.000000 0.000000 -1.000000
vn 0.000000 0.000000 -1.000000
vn -0.309017 0.000000 -0.951057
vn -0.309017 0.000000 -0.951057
vn -0.587785 0.000000 -0.809017
vn -0.587785 0.000000 -0.809017
vn -0.809017 0.000000 -0.587785
vn -0.809017 0.000000 -0.587785
vn -0.951057 0.000000 -0.309017
vn -0.951057 0.000000 -0.309017
vn -1.000000 0.000000 -0.000000
vn -1.000000 0.000000 0.000000
vn -0.951057 -0.000000 0.309017
vn -0.951057 -0.000000 0.309017
vn -0.809017 -0.000000 0.587785
vn -0.809017 -0.000000 0.587785
vn -0.587785 -0.000000 0.809017
vn -0.587785 -0.000000 0.809017
vn -0.309017 -0.000000 0.951057
vn -0.309017 -0.000000 0.951057
vn -0.000000 -0.000000 1.000000
vn -0.000000 -0.000000 1.000000
vn 0.309017 -0.000000 0.951057
vn 0.309017 -0.000000 0.951057
vn 0.587785 -0.000000 0.809017
vn 0.587785 -0.000000 0.809017
vn 0.809017 -0.000000 0.587785
vn 0.809017 -0.000000 0.587785
vn 0.951057 -0.000000 0.309016
vn 0.951057 -0.000000 0.309016
vn 1.000000 0.000000 -0.000001
vn 1.000000 0.000000 -0.000001
vn 0.000000 1.000000 -0.000000
vn 0.000000 1.000000 0.000000
vn 0.000000 1.000000 0.000000
vn 0.000000 1.000000 -0.000001
vn 0.000000 1.000000 -0.000000
vn 0.000000 1.000000 -0.000000
vn 0.000000 1.000000 0.000000
vn 0.000000 1.000000 -0.000000
vn 0.000000 1.000000 0.000000
vn 0.000000 1.000000 0.000000
vn 0.000000 1.000000 0.000000
vn 0.000000 1.000000 -0.000000
vn 0.000000 1.000000 -0.000000
vn 0.000000 1.000000 0.000000
vn 0.000000 1.000000 0.000000
vn 0.000000 1.000000 0.000001
vn 0.000000 1.000000 0.000000
vn 0.000000 1.000000 0.000001
vn 0.000000 1.000000 -0.000001
vn 0.000000 1.000000 0.000000
vn 0.000000 -1.000000 0.000000
vn 0.000000 -1.000000 0.000000
vn 0.000000 -1.000000 0.000000
vn 0.000000 -1.000000 0.000000
vn 0.000000 -1.000000 -0.000000
vn 0.000000 -1.000000 0.000000
vn 0.000000 -1.000000 0.000000
vn 0.000000 -1.000000 -0.000000
vn 0.000000 -1.000000 0.000000
vn 0.000000 -1.000000 0.000000
vn 0.000000 -1.000000 0.000000
vn 0.000000 -1.000000 0.000000
vn 0.000000 -1.000000 0.000000
vn 0.000000 -1.000000 0.000000
vn 0.000000 -1.000000 0.000000
vn 0.000000 -1.000000 -0.000000
vn 0.000000 -1.000000 -0.000001
vn 0.000000 -1.000000 0.000002
vn 0.000000 -1.000000 0.000000
vn 0.000000 -1.000000 0.000000
g pPipe1
f 42/66/1 22/63/2 21/64/3 41/65/4
f 41/65/4 21/64/3 40/67/5 43/68/6
f 43/68/6 40/67/5 39/71/7 44/72/8
f 44/72/8 39/71/7 38/75/9 45/76/10
f 45/76/10 38/75/9 37/111/11 46/112/12
f 46/112/12 37/111/11 36/113/13 47/114/14
f 47/114/14 36/113/13 35/115/15 48/116/16
f 48/116/16 35/115/15 34/117/17 49/118/18
f 49/84/18 34/83/17 33/77/19 50/80/20
f 50/80/20 33/77/19 32/78/21 51/79/22
f 51/79/22 32/78/21 31/81/23 52/82/24
f 52/82/24 31/81/23 30/85/25 53/86/26
f 53/86/26 30/85/25 29/87/27 54/88/28
f 54/88/28 29/87/27 28/89/29 55/90/30
f 55/90/30 28/89/29 27/119/31 56/120/32
f 56/120/32 27/119/31 26/121/33 57/122/34
f 57/122/34 26/121/33 25/123/35 58/124/36
f 58/124/36 25/123/35 24/73/37 59/74/38
f 59/74/38 24/73/37 23/69/39 60/70/40
f 60/70/40 23/69/39 22/63/2 42/66/1
f 61/28/41 62/29/42 80/47/43
f 62/29/42 63/30/44 80/47/43
f 63/30/44 64/31/45 80/47/43
f 64/31/45 65/32/46 80/47/43
f 65/32/46 66/33/47 80/47/43
f 66/33/47 67/34/48 80/47/43
f 67/34/48 68/35/49 80/47/43
f 68/35/49 69/36/50 80/47/43
f 69/36/50 70/37/51 80/47/43
f 70/37/51 71/38/52 80/47/43
f 71/38/52 72/39/53 80/47/43
f 72/39/53 73/40/54 80/47/43
f 73/40/54 74/41/55 80/47/43
f 74/41/55 75/42/56 80/47/43
f 75/42/56 76/43/57 80/47/43
f 76/43/57 77/44/58 80/47/43
f 77/44/58 78/45/59 80/47/43
f 78/45/59 79/46/60 80/47/43
f 61/3/61 2/1/62 3/6/63 62/7/64
f 62/7/64 3/6/63 4/10/65 63/11/66
f 63/11/66 4/10/65 5/48/67 64/49/68
f 64/49/68 5/48/67 6/50/69 65/51/70
f 65/51/70 6/50/69 7/52/71 66/53/72
f 66/53/72 7/52/71 8/19/73 67/22/74
f 67/22/74 8/19/73 9/16/75 68/18/76
f 68/18/76 9/16/75 10/15/77 69/17/78
f 69/17/78 10/15/77 11/20/79 70/21/80
f 70/21/80 11/20/79 12/23/81 71/24/82
f 71/24/82 12/23/81 13/25/83 72/26/84
f 72/26/84 13/25/83 14/62/85 73/27/86
f 73/57/86 14/55/85 15/54/87 74/56/88
f 74/56/88 15/54/87 16/58/89 75/59/90
f 75/59/90 16/58/89 17/60/91 76/61/92
f 76/61/92 17/60/91 18/13/93 77/14/94
f 77/14/94 18/13/93 19/9/95 78/12/96
f 78/12/96 19/9/95 20/5/97 79/8/98
f 79/8/98 20/5/97 1/2/99 80/4/100
f 80/4/100 1/2/99 2/1/62 61/3/61
f 22/91/101 23/92/102 21/110/103
f 23/92/102 24/93/104 21/110/103
f 24/93/104 25/94/105 21/110/103
f 25/94/105 26/95/106 21/110/103
f 26/95/106 27/96/107 21/110/103
f 27/96/107 28/97/108 21/110/103
f 28/97/108 29/98/109 21/110/103
f 29/98/109 30/99/110 21/110/103
f 30/99/110 31/100/111 21/110/103
f 31/100/111 32/101/112 21/110/103
f 32/101/112 33/102/113 21/110/103
f 33/102/113 34/103/114 21/110/103
f 34/103/114 35/104/115 21/110/103
f 35/104/115 36/105/116 21/110/103
f 36/105/116 37/106/117 21/110/103
f 37/106/117 38/107/118 21/110/103
f 38/107/118 39/108/119 21/110/103
f 39/108/119 40/109/120 21/110/103
f 2/125/121 1/126/122 3/144/123
f 1/126/122 20/127/124 3/144/123
f 20/127/124 19/128/125 3/144/123
f 19/128/125 18/129/126 3/144/123
f 18/129/126 17/130/127 3/144/123
f 17/130/127 16/131/128 3/144/123
f 16/131/128 15/132/129 3/144/123
f 15/132/129 14/133/130 3/144/123
f 14/133/130 13/134/131 3/144/123
f 13/134/131 12/135/132 3/144/123
f 12/135/132 11/136/133 3/144/123
f 11/136/133 10/137/134 3/144/123
f 10/137/134 9/138/135 3/144/123
f 9/138/135 8/139/136 3/144/123
f 8/139/136 7/140/137 3/144/123
f 7/140/137 6/141/138 3/144/123
f 6/141/138 5/142/139 3/144/123
f 5/142/139 4/143/140 3/144/123
