# This file uses centimeters as units for non-parametric coordinates.

g default
v 4.087104 12.303747 0.000000
v 3.887068 12.303747 -1.262985
v 3.306537 12.303747 -2.402340
v 2.402340 12.303747 -3.306537
v 1.262985 12.303747 -3.887068
v -0.000000 12.303747 -4.087105
v -1.262985 12.303747 -3.887068
v -1.262985 12.303747 3.887069
v 0.000000 12.303747 4.087106
v 1.262985 12.303747 3.887070
v 2.402341 12.303747 3.306539
v 3.306539 12.303747 2.402341
v 3.887070 12.303747 1.262986
v 4.087104 2.303745 -0.000000
v 3.887068 2.303745 -1.262985
v 3.306537 2.303745 -2.402340
v 2.402340 2.303745 -3.306537
v 1.262985 2.303745 -3.887068
v -0.000000 2.303745 -4.087105
v -1.262985 2.303745 -3.887068
v -1.262985 2.303745 3.887069
v 0.000000 2.303745 4.087106
v 1.262985 2.303745 3.887070
v 2.402341 2.303745 3.306539
v 3.306539 2.303745 2.402341
v 3.887070 2.303745 1.262986
v 4.116769 12.303747 -0.000000
v 3.915280 12.303747 -1.272151
v 4.116769 2.303745 -0.000000
v 3.915280 2.303745 -1.272151
v 3.330536 12.303747 -2.419776
v 3.330536 2.303745 -2.419776
v 2.419776 12.303747 -3.330536
v 2.419776 2.303745 -3.330536
v 1.272151 12.303747 -3.915280
v 1.272151 2.303745 -3.915280
v -0.000000 12.303747 -4.116770
v -0.000000 2.303745 -4.116770
v -1.267683 12.303747 -3.916731
v -1.267683 2.303745 -3.916731
v -1.267684 12.303747 3.916733
v -0.000000 12.303747 4.116771
v -1.267684 2.303745 3.916733
v -0.000000 2.303745 4.116771
v 1.272152 12.303747 3.915282
v 1.272152 2.303745 3.915282
v 2.419777 12.303747 3.330537
v 2.419777 2.303745 3.330537
v 3.330537 12.303747 2.419777
v 3.330537 2.303745 2.419777
v 3.915282 12.303747 1.272152
v 3.915282 2.303745 1.272152
vt 0.365142 0.468576
vt 0.406255 0.468576
vt 0.328052 0.468576
vt 0.298618 0.468576
vt 0.261529 0.468576
vt 0.220415 0.468576
vt 0.179301 0.468575
vt 0.633210 0.468577
vt 0.592096 0.468577
vt 0.550982 0.468577
vt 0.513893 0.468576
vt 0.484459 0.468576
vt 0.447369 0.468576
vt 0.365141 0.821669
vt 0.406255 0.821669
vt 0.328052 0.821669
vt 0.298618 0.821669
vt 0.261528 0.821669
vt 0.220414 0.821668
vt 0.179300 0.821668
vt 0.633210 0.821669
vt 0.592096 0.821669
vt 0.550982 0.821669
vt 0.513893 0.821669
vt 0.484459 0.821669
vt 0.447369 0.821669
vt 0.447369 0.821669
vt 0.406255 0.821669
vt 0.406255 0.468576
vt 0.447369 0.468576
vt 0.484459 0.821669
vt 0.484459 0.468576
vt 0.513893 0.821669
vt 0.513893 0.468576
vt 0.550982 0.821669
vt 0.550982 0.468577
vt 0.592096 0.821669
vt 0.592096 0.468577
vt 0.633210 0.821669
vt 0.633210 0.468577
vt 0.220414 0.821668
vt 0.179300 0.821668
vt 0.179301 0.468575
vt 0.220415 0.468576
vt 0.261528 0.821669
vt 0.261529 0.468576
vt 0.298618 0.821669
vt 0.298618 0.468576
vt 0.328052 0.821669
vt 0.328052 0.468576
vt 0.365141 0.821669
vt 0.365142 0.468576
vt 0.447369 0.821669
vt 0.406255 0.821669
vt 0.406255 0.468576
vt 0.447369 0.468576
vt 0.484459 0.821669
vt 0.484459 0.468576
vt 0.513893 0.821669
vt 0.513893 0.468576
vt 0.550982 0.821669
vt 0.550982 0.468577
vt 0.592096 0.821669
vt 0.592096 0.468577
vt 0.633210 0.821669
vt 0.633210 0.468577
vt 0.220414 0.821668
vt 0.179300 0.821668
vt 0.179301 0.468575
vt 0.220415 0.468576
vt 0.261528 0.821669
vt 0.261529 0.468576
vt 0.298618 0.821669
vt 0.298618 0.468576
vt 0.328052 0.821669
vt 0.328052 0.468576
vt 0.365141 0.821669
vt 0.365142 0.468576
vn 0.951057 0.000000 -0.309017
vn 1.000000 0.000000 -0.000001
vn 1.000000 0.000000 -0.000001
vn 0.951057 0.000000 -0.309017
vn 0.809017 0.000000 -0.587785
vn 0.809017 0.000000 -0.587785
vn 0.587785 0.000000 -0.809017
vn 0.587785 0.000000 -0.809017
vn 0.309017 0.000000 -0.951056
vn 0.309017 0.000000 -0.951056
vn 0.000572 0.000000 -1.000000
vn 0.000572 0.000000 -1.000000
vn -0.155870 0.000000 -0.987778
vn -0.155870 0.000000 -0.987778
vn 0.000571 0.000000 1.000000
vn -0.155869 0.000000 0.987778
vn -0.155869 0.000000 0.987778
vn 0.000571 0.000000 1.000000
vn 0.309017 0.000000 0.951057
vn 0.309017 0.000000 0.951057
vn 0.587785 0.000000 0.809017
vn 0.587785 0.000000 0.809017
vn 0.809017 0.000000 0.587785
vn 0.809017 0.000000 0.587785
vn 0.951057 0.000000 0.309016
vn 0.951057 0.000000 0.309016
vn -0.951057 0.000000 0.309017
vn -0.951057 0.000000 0.309017
vn -1.000000 0.000000 0.000001
vn -1.000000 0.000000 0.000001
vn -0.809017 0.000000 0.587785
vn -0.809017 0.000000 0.587785
vn -0.587785 0.000000 0.809017
vn -0.587785 0.000000 0.809017
vn -0.309017 0.000000 0.951057
vn -0.309017 0.000000 0.951057
vn 0.000000 0.000000 1.000000
vn 0.000000 0.000000 1.000000
vn 0.156435 0.000000 0.987688
vn 0.156435 0.000000 0.987688
vn 0.000000 0.000000 -1.000000
vn 0.000000 0.000000 -1.000000
vn 0.156434 0.000000 -0.987688
vn 0.156434 0.000000 -0.987688
vn -0.309017 0.000000 -0.951057
vn -0.309017 0.000000 -0.951057
vn -0.587785 0.000000 -0.809017
vn -0.587785 0.000000 -0.809017
vn -0.809017 0.000000 -0.587785
vn -0.809017 0.000000 -0.587785
vn -0.951057 0.000000 -0.309016
vn -0.951057 0.000000 -0.309016
vn 0.000000 1.000000 0.000001
vn 0.000000 1.000000 0.000000
vn 0.000000 1.000000 0.000000
vn 0.000000 1.000000 0.000001
vn 0.000000 -1.000000 -0.000001
vn 0.000000 -1.000000 0.000000
vn 0.000000 -1.000000 0.000000
vn 0.000000 -1.000000 -0.000001
vn 0.000000 1.000000 0.000002
vn 0.000000 1.000000 0.000002
vn 0.000000 -1.000000 0.000001
vn 0.000000 -1.000000 0.000001
vn 0.000000 1.000000 0.000001
vn 0.000000 1.000000 0.000001
vn 0.000000 -1.000000 0.000001
vn 0.000000 -1.000000 0.000001
vn 0.000000 1.000000 0.000000
vn 0.000000 1.000000 0.000000
vn 0.000000 -1.000000 0.000000
vn 0.000000 -1.000000 0.000000
vn 0.000000 1.000000 -0.000000
vn 0.000000 1.000000 -0.000000
vn 0.000000 -1.000000 0.000000
vn 0.000000 -1.000000 0.000000
vn 0.000000 1.000000 -0.000000
vn 0.000000 1.000000 -0.000000
vn 0.000000 -1.000000 -0.000000
vn 0.000000 -1.000000 -0.000000
vn -0.987688 0.000000 0.156436
vn -0.987688 0.000000 0.156436
vn -0.987688 0.000000 0.156436
vn -0.987688 0.000000 0.156436
vn 0.000000 1.000000 -0.000000
vn 0.000000 1.000000 -0.000001
vn 0.000000 1.000000 -0.000001
vn 0.000000 1.000000 -0.000000
vn -0.987688 0.000000 -0.156435
vn -0.987688 0.000000 -0.156435
vn -0.987688 0.000000 -0.156435
vn -0.987688 0.000000 -0.156435
vn 0.000000 -1.000000 -0.000000
vn 0.000000 -1.000000 0.000001
vn 0.000000 -1.000000 0.000001
vn 0.000000 -1.000000 -0.000000
vn 0.000000 1.000000 0.000001
vn 0.000000 1.000000 0.000001
vn 0.000000 -1.000000 0.000001
vn 0.000000 -1.000000 0.000001
vn 0.000000 1.000000 0.000002
vn 0.000000 1.000000 0.000002
vn 0.000000 -1.000000 0.000000
vn 0.000000 -1.000000 0.000000
vn 0.000000 1.000000 0.000002
vn 0.000000 1.000000 0.000002
vn 0.000000 -1.000000 0.000001
vn 0.000000 -1.000000 0.000001
vn 0.000000 1.000000 0.000001
vn 0.000000 1.000000 0.000001
vn 0.000000 -1.000000 -0.000000
vn 0.000000 -1.000000 -0.000000
g pPipe1
f 28/53/1 27/54/2 29/55/3 30/56/4
f 31/57/5 28/53/1 30/56/4 32/58/6
f 33/59/7 31/57/5 32/58/6 34/60/8
f 35/61/9 33/59/7 34/60/8 36/62/10
f 37/63/11 35/61/9 36/62/10 38/64/12
f 39/65/13 37/63/11 38/64/12 40/66/14
f 42/67/15 41/68/16 43/69/17 44/70/18
f 45/71/19 42/67/15 44/70/18 46/72/20
f 47/73/21 45/71/19 46/72/20 48/74/22
f 49/75/23 47/73/21 48/74/22 50/76/24
f 51/77/25 49/75/23 50/76/24 52/78/26
f 27/54/2 51/77/25 52/78/26 29/55/3
f 2/27/27 15/30/28 14/29/29 1/28/30
f 3/31/31 16/32/32 15/30/28 2/27/27
f 4/33/33 17/34/34 16/32/32 3/31/31
f 5/35/35 18/36/36 17/34/34 4/33/33
f 6/37/37 19/38/38 18/36/36 5/35/35
f 7/39/39 20/40/40 19/38/38 6/37/37
f 9/41/41 22/44/42 21/43/43 8/42/44
f 10/45/45 23/46/46 22/44/42 9/41/41
f 11/47/47 24/48/48 23/46/46 10/45/45
f 12/49/49 25/50/50 24/48/48 11/47/47
f 13/51/51 26/52/52 25/50/50 12/49/49
f 1/28/30 14/29/29 26/52/52 13/51/51
f 2/26/53 1/15/54 27/54/55 28/53/56
f 14/2/57 15/13/58 30/56/59 29/55/60
f 3/25/61 2/26/53 28/53/56 31/57/62
f 15/13/58 16/12/63 32/58/64 30/56/59
f 4/24/65 3/25/61 31/57/62 33/59/66
f 16/12/63 17/11/67 34/60/68 32/58/64
f 5/23/69 4/24/65 33/59/66 35/61/70
f 17/11/67 18/10/71 36/62/72 34/60/68
f 6/22/73 5/23/69 35/61/70 37/63/74
f 18/10/71 19/9/75 38/64/76 36/62/72
f 7/21/77 6/22/73 37/63/74 39/65/78
f 19/9/75 20/8/79 40/66/80 38/64/76
f 20/8/81 7/21/82 39/65/83 40/66/84
f 9/19/85 8/20/86 41/68/87 42/67/88
f 8/20/89 21/7/90 43/69/91 41/68/92
f 21/7/93 22/6/94 44/70/95 43/69/96
f 10/18/97 9/19/85 42/67/88 45/71/98
f 22/6/94 23/5/99 46/72/100 44/70/95
f 11/17/101 10/18/97 45/71/98 47/73/102
f 23/5/99 24/4/103 48/74/104 46/72/100
f 12/16/105 11/17/101 47/73/102 49/75/106
f 24/4/103 25/3/107 50/76/108 48/74/104
f 13/14/109 12/16/105 49/75/106 51/77/110
f 25/3/107 26/1/111 52/78/112 50/76/108
f 1/15/54 13/14/109 51/77/110 27/54/55
f 26/1/111 14/2/57 29/55/60 52/78/112
