# This file uses centimeters as units for non-parametric coordinates.

g default
v -250.000000 -250.000000 250.000000
v 250.000000 -250.000000 250.000000
v -250.000000 250.000000 250.000000
v 250.000000 250.000000 250.000000
v -250.000000 250.000000 -250.000000
v 250.000000 250.000000 -250.000000
v -250.000000 -250.000000 -250.000000
v 250.000000 -250.000000 -250.000000
vt 0.255738 0.377428
vt 0.499870 0.377428
vt 0.255737 0.621561
vt 0.499870 0.621561
vt 0.255737 0.865693
vt 0.744003 0.621561
vt 0.988136 0.377428
vt 0.499870 0.133295
vt 0.744003 0.377428
vt 0.011605 0.377428
vt 0.011605 0.621561
vt 0.988136 0.621561
vt 0.499870 0.865693
vt 0.255737 0.133295
vn 0.000000 0.000000 -1.000000
vn 0.000000 0.000000 -1.000000
vn 0.000000 0.000000 -1.000000
vn 0.000000 0.000000 -1.000000
vn 0.000000 -1.000000 0.000000
vn 0.000000 -1.000000 0.000000
vn 0.000000 -1.000000 0.000000
vn 0.000000 -1.000000 0.000000
vn 0.000000 0.000000 1.000000
vn 0.000000 0.000000 1.000000
vn 0.000000 0.000000 1.000000
vn 0.000000 0.000000 1.000000
vn 0.000000 1.000000 0.000000
vn 0.000000 1.000000 0.000000
vn 0.000000 1.000000 0.000000
vn 0.000000 1.000000 0.000000
vn -1.000000 0.000000 0.000000
vn -1.000000 0.000000 0.000000
vn -1.000000 0.000000 0.000000
vn -1.000000 0.000000 0.000000
vn 1.000000 0.000000 0.000000
vn 1.000000 0.000000 0.000000
vn 1.000000 0.000000 0.000000
vn 1.000000 0.000000 0.000000
g pCube1
f 1/1/1 3/3/2 4/4/3 2/2/4
f 3/3/5 5/5/6 6/13/7 4/4/8
f 5/12/9 7/7/10 8/9/11 6/6/12
f 7/14/13 1/1/14 2/2/15 8/8/16
f 2/2/17 4/4/18 6/6/19 8/9/20
f 7/10/21 5/11/22 3/3/23 1/1/24
